<svg width="128" height="32" viewBox="0 0 128 32" fill="none" xmlns="http://www.w3.org/2000/svg">
<mask id="mask0_5008_13269" style="mask-type:alpha" maskUnits="userSpaceOnUse" x="0" y="0" width="128" height="32">
<rect width="128" height="32" fill="#C4C4C4"/>
</mask>
<g mask="url(#mask0_5008_13269)">
<path fill-rule="evenodd" clip-rule="evenodd" d="M123.024 12.1329H123.753C123.908 12.1329 124.028 12.1165 124.115 12.0865C124.203 12.0565 124.268 12.0074 124.314 11.9392C124.361 11.871 124.383 11.8001 124.383 11.721C124.383 11.6065 124.339 11.511 124.252 11.4374C124.164 11.3637 124.025 11.3256 123.837 11.3256H123.027V12.1329H123.024ZM123.608 10.2427C124.786 10.2427 125.744 11.1537 125.744 12.2747C125.744 13.3984 124.786 14.3067 123.608 14.3067C120.801 14.3094 120.799 10.2427 123.608 10.2427ZM123.608 10C124.928 10 126 11.0201 126 12.2774C126 13.5348 124.931 14.5549 123.608 14.5549C122.288 14.5549 121.216 13.5348 121.216 12.2774C121.219 11.0173 122.288 10 123.608 10ZM23.1607 18.5752L24.9772 18.6079L26.7091 18.5915C27.6528 18.5915 28.3347 18.4906 28.7575 18.2915C29.1802 18.0924 29.3902 17.5796 29.3902 16.7587L29.423 15.2586C29.423 14.7594 29.393 14.3258 29.3302 13.9603C29.2702 13.5948 29.1475 13.3275 28.9648 13.1611C28.782 12.9948 28.5065 12.8829 28.1411 12.8284C27.7756 12.7738 27.5056 12.7411 27.3337 12.7357C27.1619 12.7302 27.0255 12.7275 26.9246 12.7275L23.5616 12.7438C22.7734 12.7438 22.1897 12.8229 21.8133 12.9757C21.4124 13.1202 21.1806 13.453 21.1151 13.9739L21.0305 15.2231V15.5231V15.9732C21.0305 16.9823 21.1478 17.6696 21.3797 18.0297C21.6115 18.3952 22.2061 18.5752 23.1607 18.5752ZM24.9936 10L27.691 10.0164C29.6685 10.0164 31.0185 10.3437 31.7468 10.9983C32.475 11.6528 32.8378 12.962 32.8378 14.9285V15.4604C32.8378 17.7706 32.5487 19.3143 31.9704 20.0971C31.3922 20.8799 29.933 21.2699 27.5901 21.2699L25.0427 21.319L23.9762 21.3354L21.677 21.2508C20.4005 21.2508 19.4104 20.959 18.704 20.3753C18.0003 19.7916 17.6458 18.8506 17.6458 17.5524L17.613 15.504C17.613 13.2511 17.8994 11.7756 18.4695 11.0828C19.0422 10.39 20.4141 10.0409 22.5907 10.0409L24.9936 10ZM51.1227 21.2235V12.7629L46.2269 21.2235H43.5131L38.6664 12.7629V21.2235H35.4861V10.1146H40.8647L44.945 17.476L48.9762 10.1146H54.3221V21.2235H51.1227ZM67.2585 14.3285C67.2585 13.7175 67.1248 13.3139 66.8575 13.112C66.5902 12.9129 66.1238 12.812 65.4583 12.812H60.5952V15.7604H65.5074C66.1511 15.7604 66.6039 15.6677 66.8657 15.4849C67.1303 15.3022 67.2585 14.9176 67.2585 14.3285ZM66.2111 10.1146C67.8776 10.1146 69.0368 10.3846 69.6914 10.9219C70.346 11.4592 70.6733 12.5556 70.6733 14.2112C70.6733 15.7659 70.4196 16.8623 69.915 17.5005C69.4104 18.1388 68.3522 18.4579 66.743 18.4579H65.8756H60.5952V21.2235H57.2159V10.1146H66.2111ZM77.1674 16.9114H81.9295L79.5484 12.5147L77.1674 16.9114ZM74.8872 21.2235H71.1233L77.3174 10.1146H81.8804L87.9436 21.2235H84.2124L83.1623 19.2079H75.9864L74.8872 21.2235ZM93.1394 17.8606C93.1394 18.3052 93.2894 18.5943 93.5895 18.7279C93.9222 18.8397 94.3504 18.8943 94.8714 18.8943L96.4697 18.9107L98.7335 18.8452C99.3553 18.8452 99.7617 18.7688 99.9499 18.6134C100.138 18.4579 100.234 18.2124 100.234 17.8797C100.234 17.5796 100.124 17.3424 99.909 17.1623C99.6935 16.9851 99.279 16.895 98.668 16.895H98.1171L92.5558 16.7778C91.522 16.7778 90.7856 16.5159 90.341 15.995C89.9183 15.4522 89.7083 14.6394 89.7083 13.5648C89.7083 12.6538 89.8419 11.9474 90.1092 11.4428C90.3765 10.9383 90.8702 10.5864 91.5902 10.3846C91.9775 10.2837 92.4085 10.2046 92.8803 10.1418C93.3522 10.0818 93.8595 10.0491 94.405 10.0491L96.7533 10L99.118 10.0327C99.6063 10.0327 100.032 10.0491 100.392 10.0818C100.752 10.1146 101.087 10.1773 101.398 10.2646C101.966 10.3982 102.366 10.6655 102.606 11.0637C102.846 11.4647 102.999 11.8274 103.073 12.1547C103.144 12.482 103.182 12.9293 103.182 13.4966H99.8681C99.8681 13.1202 99.7535 12.8502 99.5272 12.6893C99.3008 12.5284 98.9817 12.4465 98.5698 12.4465L96.9388 12.4302L94.3586 12.5147C94.0368 12.5147 93.7504 12.5775 93.5022 12.7057C93.2513 12.8338 93.1285 13.0466 93.1285 13.3466C93.1285 13.7475 93.2676 14.0176 93.5458 14.1621C93.6795 14.2167 93.8431 14.263 94.0368 14.2958C94.2304 14.3285 94.4568 14.3449 94.7104 14.3449H95.0596L97.3234 14.3776L99.5544 14.394C100.997 14.394 102.036 14.6203 102.669 15.0758C103.324 15.5095 103.651 16.4068 103.651 17.7733C103.651 19.0825 103.359 19.9825 102.776 20.4708C102.192 20.959 101.229 21.2045 99.8872 21.2045L95.5587 21.3217L93.2949 21.2726C92.0839 21.2726 91.2002 21.079 90.6383 20.689C90.0765 20.3017 89.7983 19.5189 89.7983 18.3406V17.6751H93.1285L93.1394 17.8606ZM109.51 17.8606C109.51 18.3052 109.66 18.5943 109.96 18.7279C110.292 18.8397 110.721 18.8943 111.242 18.8943L112.84 18.9107L115.104 18.8452C115.726 18.8452 116.132 18.7688 116.32 18.6134C116.508 18.4579 116.604 18.2124 116.604 17.8797C116.604 17.5796 116.495 17.3424 116.279 17.1623C116.064 16.9851 115.649 16.895 115.038 16.895H114.487L108.926 16.7778C107.892 16.7778 107.156 16.5159 106.711 15.995C106.289 15.4522 106.079 14.6394 106.079 13.5648C106.079 12.6538 106.212 11.9474 106.479 11.4428C106.747 10.9383 107.24 10.5864 107.961 10.3846C108.348 10.2837 108.779 10.2046 109.251 10.1418C109.722 10.0818 110.23 10.0491 110.775 10.0491L113.124 10L115.488 10.0327C115.977 10.0327 116.402 10.0491 116.762 10.0818C117.122 10.1146 117.458 10.1773 117.769 10.2646C118.336 10.3982 118.737 10.6655 118.977 11.0637C119.217 11.4647 119.37 11.8274 119.443 12.1547C119.514 12.482 119.552 12.9293 119.552 13.4966H116.238C116.238 13.1202 116.124 12.8502 115.897 12.6893C115.671 12.5284 115.352 12.4465 114.94 12.4465L113.309 12.4302L110.729 12.5147C110.407 12.5147 110.121 12.5775 109.872 12.7057C109.622 12.8338 109.499 13.0466 109.499 13.3466C109.499 13.7475 109.638 14.0176 109.916 14.1621C110.05 14.2167 110.213 14.263 110.407 14.2958C110.601 14.3285 110.827 14.3449 111.081 14.3449H111.43L113.694 14.3776L115.925 14.394C117.368 14.394 118.407 14.6203 119.039 15.0758C119.694 15.5095 120.021 16.4068 120.021 17.7733C120.021 19.0825 119.73 19.9825 119.146 20.4708C118.562 20.959 117.599 21.2045 116.257 21.2045L111.926 21.3217L109.662 21.2726C108.451 21.2726 107.568 21.079 107.006 20.689C106.444 20.3017 106.166 19.5189 106.166 18.3406V17.6751H109.496L109.51 17.8606ZM15.2019 17.476C15.2019 18.9979 14.921 20.0126 14.3619 20.5226C13.8 21.0326 12.6927 21.289 11.0398 21.289L8.45963 21.3381L6.36221 21.3054C4.13113 21.3054 2.69648 21.0135 2.05826 20.4298C1.42003 19.8462 1.10092 18.9407 1.10092 17.7078L1 15.3758C1 13.5675 1.26729 12.2338 1.79915 11.3801C2.331 10.5264 3.41927 10.0982 5.06393 10.0982L8.2278 10.0136C8.54964 10.0136 8.96694 10.0191 9.47698 10.03C9.98702 10.0409 10.3307 10.0464 10.5107 10.0464C11.0998 10.0464 11.8199 10.09 12.6763 10.18C13.53 10.27 14.1437 10.6464 14.5173 11.3119C14.8883 11.9774 15.0765 12.8829 15.0765 14.0257H11.7953C11.7953 13.5266 11.6699 13.1884 11.4217 13.0111C11.1707 12.8338 10.7753 12.7438 10.2298 12.7438L9.2806 12.7275H8.34781L6.63223 12.7438C5.62306 12.7438 4.99575 12.932 4.75027 13.3112C4.52935 13.6875 4.41752 14.4703 4.41752 15.6595C4.41752 16.8596 4.55117 17.6478 4.81846 18.0242C5.08575 18.4006 5.79489 18.5915 6.95134 18.5915L8.26598 18.6243L9.99792 18.6079C10.6743 18.6079 11.1571 18.5124 11.4462 18.3242C11.7353 18.136 11.8799 17.6915 11.8799 16.9932H15.1938L15.2019 17.476ZM122.686 13.4939V11.0583H123.821C124.05 11.0583 124.222 11.0801 124.342 11.1237C124.459 11.1674 124.554 11.2437 124.625 11.3556C124.696 11.4674 124.732 11.5874 124.732 11.7238C124.732 11.8956 124.672 12.0429 124.554 12.1602C124.437 12.2774 124.257 12.3538 124.012 12.3865C124.102 12.4274 124.17 12.4684 124.216 12.5093C124.314 12.5966 124.41 12.7029 124.497 12.8338L124.939 13.4966H124.516L124.178 12.9893C124.08 12.842 123.998 12.7302 123.935 12.6538C123.87 12.5775 123.813 12.5229 123.763 12.4902C123.714 12.4602 123.663 12.4384 123.608 12.4247C123.57 12.4165 123.507 12.4138 123.42 12.4138H123.027V13.4966H122.686V13.4939Z" fill="white"/>
</g>
</svg>